Coordinates
version=1
nRows=10
nColumns=33
inDegrees=yes

Units are S.I. units (second, meters, Newtons, ...)
Angles are in degrees.

endheader
time	ground_thorax_rot_x	ground_thorax_rot_y	ground_thorax_rot_z	ground_thorax_tx	ground_thorax_ty	ground_thorax_tz	clav_prot_r	clav_elev_r	scapula_abduction_r	scapula_elevation_r	scapula_upward_rot_r	scapula_winging_r	shoulder_elv_r	plane_of_elev_r	axial_rot_r	elbow_flexion_r	pro_sup_r	wrist_flex_r	wrist_dev_r	clav_prot_l	clav_elev_l	scapula_abduction_l	scapula_elevation_l	scapula_upward_rot_l	scapula_winging_l	shoulder_elv_l	plane_of_elev_l	axial_rot_l	elbow_flexion_l	pro_sup_l	wrist_flex_l	wrist_dev_l
     13.61000000	    -37.41779768	     11.91276739	     -6.88213876	     25.64987876	    762.03097024	    -30.50255116	     11.59206616	    -45.00000000	     45.00000000	    -45.00000000	     -0.06927964	  -1168.15776164	  -3171.59071235	     20.39392617	    179.99999979	   1804.67328595	   -175.77561389	     11.79902856	     13.11592162	     19.16174154	     27.18589012	    -44.69902123	    -44.86938994	    -45.00000000	  -2451.75674580	   -982.60732541	     20.39715764	   -179.99999979	   1075.33818289	    484.31273131	      9.68202051	     -9.70747063
     13.62000000	    -37.51167776	     11.63293601	     -6.50935838	     23.07335583	    762.67347798	    -30.42256099	     11.86408863	    -45.00000000	     45.00000000	    -45.00000000	     -0.85442280	  -1168.42445218	  -3171.52486245	     20.55232102	    179.99999979	   1804.81141942	   -175.60052900	     12.26204612	     13.20801873	     18.89494462	     27.38902284	    -44.30236512	    -44.89964273	    -45.00000000	  -2451.54054780	   -982.85901341	     20.60201479	   -179.99999979	   1075.35817706	    484.89059048	      9.49830467	     -9.53957250
     13.63000000	    -37.67720250	     11.14052245	     -5.97985003	     20.40372494	    763.35324233	    -30.35143158	     12.34629861	    -45.00000000	     45.00000000	    -45.00000000	     -1.73595209	  -1168.57709657	  -3171.51053834	     20.48133034	    179.99999979	   1804.67158023	   -175.40480025	     12.14312179	     13.23453172	     18.32118911	     27.13918495	    -43.62253472	    -45.00000000	    -45.00000000	  -2451.78509168	   -982.93534649	     20.37084238	   -179.99999979	   1075.41481808	    485.63356989	      9.82182489	     -9.64178144
     13.64000000	    -37.90586877	     10.26493002	     -5.00981588	     17.65781851	    764.06904003	    -30.28988511	     13.07121153	    -45.00000000	     45.00000000	    -45.00000000	     -3.34466375	  -1168.72819924	  -3171.49240163	     20.42094768	    179.99999979	   1804.56801626	   -175.31243998	     12.34456076	     13.22710349	     17.77534646	     27.19930175	    -42.98834229	    -45.00000000	    -45.00000000	  -2451.76110764	   -983.31728187	     20.07684279	   -179.99999979	   1075.45146874	    486.80305751	      9.94498598	     -9.56541998
     13.65000000	    -38.01196168	      9.33894572	     -4.09053504	     14.83629470	    764.82525242	    -30.23911641	     13.71231514	    -45.00000000	     45.00000000	    -45.00000000	     -4.84533991	  -1169.04500496	  -3171.40178238	     20.60030351	    179.99999979	   1804.61431232	   -175.23970677	     12.45409045	     13.35967957	     16.68594156	     26.92702398	    -41.92744965	    -45.00000000	    -45.00000000	  -2451.89818434	   -983.41447389	     20.07840305	   -179.99999979	   1075.63674941	    488.19150376	     10.11270873	     -9.57343827
     13.66000000	    -38.22798055	      8.12181630	     -2.86045096	     11.94729589	    765.62337824	    -30.19996936	     14.65897602	    -45.00000000	     45.00000000	    -45.00000000	     -6.85245196	  -1169.16972568	  -3171.39711061	     20.54867087	    179.99999979	   1804.55364512	   -175.20907855	     12.53145474	     13.41204259	     16.02014271	     26.95274676	    -40.94205087	    -45.00000000	    -45.00000000	  -2451.96970906	   -983.72971459	     19.76372303	   -179.99999979	   1075.79444538	    489.99487578	     10.32132572	     -9.61347880
     13.67000000	    -38.39866943	      6.64050291	     -1.39587394	      9.00079077	    766.46434617	    -30.17270808	     15.66315682	    -45.00000000	     45.00000000	    -45.00000000	     -9.07707799	  -1169.35612631	  -3171.34213898	     20.55728798	    179.99999979	   1804.57321695	   -175.22309031	     12.58766976	     13.47556831	     14.96597681	     26.75702290	    -39.73991471	    -45.00000000	    -45.00000000	  -2452.03959653	   -984.02511554	     19.51159493	   -179.99999979	   1076.03089005	    492.31300480	     10.55973964	     -9.71124884
     13.68000000	    -36.10482241	    -14.53137683	     22.87960118	      5.99685355	    767.36669607	    -30.15639224	     24.99293179	    -45.00000000	     36.22340519	    -45.00000000	    -45.00000000	  -1168.27542207	  -3168.19957161	     22.44849742	    179.99999979	   1805.20407804	   -173.92318029	     12.60904376	     13.65743482	      4.57788505	     27.06059167	    -28.07781925	    -45.00000000	    -45.00000000	  -2449.19544078	   -986.65070744	     17.23388560	   -179.99999979	   1080.78910769	    537.49954103	     11.67178872	    -14.00058557
     13.69000000	    -36.59770895	    -13.50049844	     21.86403087	      2.94320098	    768.28920078	    -30.14749356	     23.90371560	    -45.00000000	     35.37104520	    -45.00000000	    -45.00000000	  -1168.09174362	  -3167.96385527	     22.73600426	    179.99999979	   1805.04993700	   -173.83122824	     12.70036169	     13.81923120	      5.40503446	     27.08573834	    -28.59342522	    -45.00000000	    -45.00000000	  -2449.23496468	   -986.44605551	     17.29633090	   -179.99999979	   1080.59501930	    537.55397589	     11.68824443	    -14.01434975
     13.70000000	    -36.73764269	    -13.21866384	     21.51373715	     -0.15474036	    769.25288303	    -30.14360653	     23.85404762	    -45.00000000	     35.21743113	    -45.00000000	    -45.00000000	  -1168.18772985	  -3167.90965850	     22.80767177	    179.99999979	   1805.06217890	   -173.91757867	     12.74408607	     13.95595662	      5.41341594	     27.11081902	    -28.56816933	    -45.00000000	    -45.00000000	  -2449.08022508	   -986.37654974	     17.33607269	   -179.99999979	   1080.52578519	    537.54756512	     11.74387903	    -14.08887816
